<svg xmlns="http://www.w3.org/2000/svg" viewBox="0 0 1300 1000"><path d="m197 165h890v674h-890z" fill="transparent"/><circle cx="631.84" cy="397.8" fill="#d6e0e5" r="23.29"/><circle cx="574.12" cy="451.53" fill="#d6e0e5" r="13.78"/><circle cx="541.46" cy="424.32" fill="#d6e0e5" r="4.16"/><circle cx="663.42" cy="451.53" fill="#d6e0e5" r="13.78"/><circle cx="678.42" cy="513.61" fill="#d6e0e5" r="13.78"/><circle cx="612.79" cy="481.07" fill="#d6e0e5" r="20.24"/><circle cx="631.84" cy="451.53" fill="none" r="110.64" stroke="#557793" stroke-miterlimit="10" stroke-width="6"/><path d="m631.53 344.2a109.13 109.13 0 0 0 -11.12.57 107.34 107.34 0 0 1 0 213.58 109.16 109.16 0 0 0 11.12.57c59.45 0 107.64-48.07 107.64-107.36s-48.17-107.36-107.64-107.36z" fill="#d6e0e5"/><circle cx="631.84" cy="397.8" fill="none" r="23.29" stroke="#557793" stroke-miterlimit="10" stroke-width="6"/><circle cx="663.42" cy="451.56" fill="none" r="13.67" stroke="#557793" stroke-miterlimit="10" stroke-width="6"/><circle cx="574.12" cy="451.53" fill="none" r="13.67" stroke="#557793" stroke-miterlimit="10" stroke-width="6"/><circle cx="541.46" cy="424.32" fill="none" r="5.31" stroke="#557793" stroke-miterlimit="10" stroke-width="6"/><circle cx="677.09" cy="513.61" fill="none" r="13.67" stroke="#557793" stroke-miterlimit="10" stroke-width="6"/><circle cx="612.79" cy="481.07" fill="none" r="21.21" stroke="#557793" stroke-miterlimit="10" stroke-width="6"/><g fill="#557793"><path d="m430.79 515.7h-94.46v-26.21l84.67-132.49h46.05v128.79h26.95v29.91h-26.91v55.13h-36.3zm0-29.92v-48.4c0-12.44 1-31.93 1.68-44.37h-1.34c-5.38 11.09-11.43 21.85-17.48 33.28l-39 59.49z"/><path d="m858.31 515.7h-94.45v-26.21l84.7-132.49h46.05v128.79h26.89v29.91h-26.88v55.13h-36.3zm0-29.92v-48.4c0-12.44 1-31.93 1.68-44.37h-1.34c-5.38 11.09-11.43 21.85-17.48 33.28l-39 59.49z"/><g opacity=".63"><path d="m458 782h3.26v25.75h-3.26z"/><path d="m468.54 801.83v-10.56h-2.83v-2.43l3-.2.39-5.34h2.71v5.34h5.14v2.63h-5.15v10.6c0 2.36.75 3.69 2.94 3.69a6.94 6.94 0 0 0 2.16-.51l.63 2.43a11.77 11.77 0 0 1 -3.53.71c-4.08 0-5.46-2.59-5.46-6.36z"/><path d="m489.12 803.87v-24.11h3.22v24.34c0 1 .43 1.41.9 1.41a2.68 2.68 0 0 0 .71-.08l.43 2.43a4.34 4.34 0 0 1 -1.85.31c-2.43.02-3.41-1.51-3.41-4.3z"/><path d="m497.72 798.22c0-6.4 4.16-10.05 8.83-10.05s8.83 3.65 8.83 10.05-4.16 10-8.83 10-8.83-3.68-8.83-10zm14.33 0c0-4.4-2.2-7.38-5.5-7.38s-5.5 3-5.5 7.38 2.24 7.3 5.5 7.3 5.45-2.95 5.45-7.3z"/><path d="m519 798.22c0-6.4 4.16-10.05 8.83-10.05s8.83 3.65 8.83 10.05-4.16 10-8.83 10-8.83-3.68-8.83-10zm14.33 0c0-4.4-2.2-7.38-5.5-7.38s-5.5 3-5.5 7.38 2.24 7.3 5.5 7.3 5.5-2.95 5.5-7.3z"/><path d="m541.7 779.76h3.18v18.92h.12l8.13-10.05h3.57l-6.4 7.66 7.26 11.42h-3.56l-5.58-9.19-3.57 4.16v5h-3.15z"/><path d="m559 805.56 1.61-2.16a8.58 8.58 0 0 0 5.61 2.28c2.51 0 3.77-1.33 3.77-3 0-2-2.28-2.83-4.36-3.61-2.71-1-5.69-2.28-5.69-5.5 0-3.06 2.43-5.42 6.56-5.42a9.52 9.52 0 0 1 5.93 2.16l-1.53 2a7.09 7.09 0 0 0 -4.36-1.69c-2.39 0-3.49 1.3-3.49 2.75 0 1.81 2.08 2.47 4.24 3.3 2.75 1 5.81 2.16 5.81 5.77 0 3.1-2.47 5.69-7 5.69a11.48 11.48 0 0 1 -7.1-2.57z"/><path d="m585.44 803.87v-24.11h3.22v24.34c0 1 .43 1.41.9 1.41a2.68 2.68 0 0 0 .71-.08l.43 2.43a4.34 4.34 0 0 1 -1.85.31c-2.43.02-3.41-1.51-3.41-4.3z"/><path d="m594.86 782.63a2.24 2.24 0 0 1 4.48 0 2.24 2.24 0 0 1 -4.48 0zm.59 6h3.22v19.08h-3.22z"/><path d="m605.11 779.76h3.18v18.92h.12l8.13-10.05h3.57l-6.4 7.66 7.29 11.43h-3.53l-5.58-9.19-3.57 4.16v5h-3.18z"/><path d="m622.43 798.22c0-6.24 4.2-10.05 8.56-10.05 4.87 0 7.62 3.49 7.62 9a12.56 12.56 0 0 1 -.12 1.85h-12.88c.24 4 2.71 6.63 6.36 6.63a8.62 8.62 0 0 0 4.75-1.49l1.14 2.12a11.36 11.36 0 0 1 -6.28 2c-5.11-.09-9.15-3.82-9.15-10.06zm13.35-1.57c0-3.85-1.73-5.93-4.71-5.93-2.67 0-5.1 2.16-5.5 5.93z"/><path d="m649.25 815.53.63-2.55a5.59 5.59 0 0 0 1.45.28c2.16 0 3.53-1.73 4.32-4.08l.43-1.41-7.66-19.12h3.34l3.89 10.56c.59 1.65 1.26 3.61 1.85 5.38h.16c.55-1.73 1.1-3.69 1.61-5.38l3.42-10.56h3.14l-7.18 20.65c-1.33 3.77-3.3 6.63-7.15 6.63a6.32 6.32 0 0 1 -2.25-.4z"/><path d="m667.94 798.22c0-6.4 4.16-10.05 8.83-10.05s8.83 3.65 8.83 10.05-4.16 10-8.83 10-8.83-3.68-8.83-10zm14.33 0c0-4.4-2.2-7.38-5.5-7.38s-5.5 3-5.5 7.38 2.24 7.3 5.5 7.3 5.5-2.95 5.5-7.3z"/><path d="m690.36 800.73v-12.09h3.26v11.66c0 3.57 1.06 5.1 3.57 5.1 2 0 3.34-1 5.14-3.22v-13.54h3.22v19.08h-2.67l-.27-3h-.12c-1.77 2.08-3.65 3.45-6.28 3.45-4.04.02-5.85-2.57-5.85-7.44z"/><path d="m711.25 789.3c2-1.3 2.94-2.67 2.94-4.91a.85.85 0 0 1 -.31 0 2 2 0 0 1 -2.08-2 2 2 0 0 1 2.08-2.2c1.53 0 2.47 1.3 2.47 3.57a7.61 7.61 0 0 1 -4.2 6.95z"/><path d="m721.26 788.64h2.67l.28 3.46h.12c1.29-2.39 3.26-3.93 5.42-3.93a4.73 4.73 0 0 1 2 .39l-.63 2.83a5.32 5.32 0 0 0 -1.85-.31c-1.61 0-3.53 1.18-4.83 4.4v12.25h-3.22z"/><path d="m733.08 798.22c0-6.24 4.2-10.05 8.56-10.05 4.87 0 7.62 3.49 7.62 9a12.41 12.41 0 0 1 -.12 1.85h-12.88c.24 4 2.71 6.63 6.36 6.63a8.62 8.62 0 0 0 4.75-1.49l1.14 2.12a11.36 11.36 0 0 1 -6.28 2c-5.11-.09-9.15-3.82-9.15-10.06zm13.35-1.57c0-3.85-1.73-5.93-4.71-5.93-2.67 0-5.1 2.16-5.5 5.93z"/><path d="m761.82 803.87v-24.11h3.18v24.34c0 1 .43 1.41.9 1.41a2.69 2.69 0 0 0 .71-.08l.43 2.43a4.34 4.34 0 0 1 -1.85.31c-2.39.02-3.37-1.51-3.37-4.3z"/><path d="m770.42 798.22c0-6.4 4.16-10.05 8.83-10.05s8.83 3.65 8.83 10.05-4.16 10-8.83 10-8.83-3.68-8.83-10zm14.33 0c0-4.4-2.2-7.38-5.5-7.38s-5.5 3-5.5 7.38 2.24 7.3 5.5 7.3 5.5-2.95 5.5-7.3z"/><path d="m791 805.56 1.61-2.16a8.58 8.58 0 0 0 5.61 2.28c2.51 0 3.77-1.33 3.77-3 0-2-2.28-2.83-4.36-3.61-2.71-1-5.69-2.28-5.69-5.5 0-3.06 2.43-5.42 6.56-5.42a9.52 9.52 0 0 1 5.93 2.16l-1.53 2a7.09 7.09 0 0 0 -4.36-1.69c-2.4 0-3.49 1.3-3.49 2.75 0 1.81 2.08 2.47 4.24 3.3 2.75 1 5.81 2.16 5.81 5.77 0 3.1-2.47 5.69-7 5.69a11.48 11.48 0 0 1 -7.1-2.57z"/><path d="m809.34 801.83v-10.56h-2.83v-2.43l3-.2.39-5.34h2.71v5.34h5.14v2.63h-5.14v10.6c0 2.36.75 3.69 2.95 3.69a6.94 6.94 0 0 0 2.16-.51l.63 2.43a11.77 11.77 0 0 1 -3.53.71c-4.11 0-5.48-2.59-5.48-6.36z"/><path d="m821.67 805.75a2.34 2.34 0 1 1 4.67 0 2.34 2.34 0 1 1 -4.67 0z"/><path d="m831.44 805.75a2.34 2.34 0 1 1 4.67 0 2.34 2.34 0 1 1 -4.67 0z"/><path d="m841.22 805.75a2.34 2.34 0 1 1 4.67 0 2.34 2.34 0 1 1 -4.67 0z"/></g><path d="m524.09 694.44c0-17 9.48-27 23.15-27s23.23 10 23.23 27-9.48 27.49-23.23 27.49-23.15-10.45-23.15-27.49zm36.73 0c0-11.73-5.3-18.89-13.58-18.89s-13.58 7.15-13.58 18.89 5.3 19.37 13.58 19.37 13.58-7.55 13.58-19.37z"/><path d="m578.26 694.44c0-17 9.48-27 23.15-27s23.23 10 23.23 27-9.48 27.49-23.23 27.49-23.15-10.45-23.15-27.49zm36.73 0c0-11.73-5.3-18.89-13.58-18.89s-13.58 7.15-13.58 18.89 5.3 19.37 13.58 19.37 13.59-7.55 13.59-19.37z"/><path d="m635.16 668.4h16.56c11.65 0 20.33 4 20.33 16.23 0 11.65-8.68 17-20 17h-7.55v19.37h-9.32zm16.15 25.8c7.8 0 11.57-3.13 11.57-9.56 0-6.59-4.1-8.76-11.89-8.76h-6.51v18.32z"/><path d="m677.52 714.21 5.46-6.35c3.78 3.54 8.84 5.95 13.66 5.95 5.95 0 9.16-2.65 9.16-6.75 0-4.34-3.38-5.71-8.12-7.72l-7.23-3.13c-5.14-2.17-10.61-6.27-10.61-14 0-8.36 7.39-14.79 17.68-14.79a23.2 23.2 0 0 1 16.15 6.67l-4.74 5.95c-3.37-2.81-6.91-4.5-11.41-4.5-5 0-8.28 2.33-8.28 6.19 0 4.1 4 5.63 8.36 7.39l7.15 3c6.19 2.65 10.61 6.59 10.61 14.23 0 8.52-7.07 15.59-18.89 15.59a27.23 27.23 0 0 1 -18.95-7.73z"/><path d="m724.94 715.66a6 6 0 0 1 6-6.27 6.28 6.28 0 0 1 0 12.54 6 6 0 0 1 -6-6.27zm1.61-39.38-.24-9.16h9.32l-.32 9.16-1.31 27.4h-6.19z"/><ellipse cx="836.11" cy="660.65" opacity=".45" rx="3.79" ry="4.01"/><ellipse cx="489.12" cy="603.02" opacity=".45" rx="3.79" ry="4.01"/><ellipse cx="471.62" cy="690.5" opacity=".45" rx="3.79" ry="4.01"/><ellipse cx="266.08" cy="535.12" opacity=".45" rx="3.79" ry="4.01"/><ellipse cx="343.31" cy="652.69" opacity=".45" rx="3.79" ry="4.01"/><ellipse cx="339.52" cy="590.44" opacity=".45" rx="3.79" ry="4.01"/><ellipse cx="1049.79" cy="586.43" opacity=".45" rx="3.79" ry="4.01"/><ellipse cx="1063.79" cy="510.53" opacity=".45" rx="3.79" ry="4.01"/><ellipse cx="339.52" cy="728.31" opacity=".45" rx="3.79" ry="4.01"/><ellipse cx="278.47" cy="679.28" opacity=".45" rx="3.79" ry="4.01"/><ellipse cx="415.16" cy="211.01" opacity=".45" rx="3.79" ry="4.01"/><ellipse cx="433.1" cy="299.58" opacity=".45" rx="3.79" ry="4.01"/><ellipse cx="305.2" cy="305.51" opacity=".45" rx="3.79" ry="4.01"/><ellipse cx="662.89" cy="614.64" opacity=".45" rx="3.79" ry="4.01"/><ellipse cx="756.96" cy="586.43" opacity=".45" rx="3.79" ry="4.01"/><ellipse cx="387.39" cy="785.53" opacity=".45" rx="3.79" ry="4.01"/><ellipse cx="214.42" cy="510.53" opacity=".45" rx="3.79" ry="4.01"/><ellipse cx="870.19" cy="715.66" opacity=".45" rx="3.79" ry="4.01"/><ellipse cx="588.07" cy="243.6" opacity=".45" rx="3.79" ry="4.01"/><ellipse cx="529.3" cy="247.61" opacity=".45" rx="3.79" ry="4.01"/><ellipse cx="903.13" cy="272.23" opacity=".45" rx="3.79" ry="4.01"/><ellipse cx="995.46" cy="309.52" opacity=".45" rx="3.79" ry="4.01"/><ellipse cx="963.52" cy="219.03" opacity=".45" rx="3.79" ry="4.01"/><ellipse cx="999.25" cy="469" opacity=".45" rx="3.79" ry="4.01"/><ellipse cx="769.1" cy="297.87" opacity=".45" rx="3.79" ry="4.01"/><ellipse cx="899.78" cy="765.81" opacity=".45" rx="3.79" ry="4.01"/><ellipse cx="217.97" cy="593.79" opacity=".8" rx="5.67" ry="6.01"/><ellipse cx="859.99" cy="309.52" opacity=".8" rx="5.67" ry="6.01"/><ellipse cx="529.3" cy="333.09" opacity=".8" rx="5.67" ry="6.01"/><ellipse cx="981.07" cy="558.93" opacity=".8" rx="5.67" ry="6.01"/><ellipse cx="847.82" cy="249.6" opacity=".8" rx="5.67" ry="6.01"/><ellipse cx="685.6" cy="257.51" opacity=".8" rx="5.67" ry="6.01"/><ellipse cx="347.1" cy="295.57" opacity=".8" rx="5.67" ry="6.01"/></g><path d="m955.13 405.27c-.48-13.69-5.23-27.7-20.28-27.46 12.25-.24 19.86-11.38 20.28-27.29-.34 13.75 6.27 27.38 20.28 27.29-14.41.08-20.84 13.48-20.28 27.46z" fill="#fff"/><path d="m953.4 405.34v-.23c-.38-9.69-3.27-25.58-18.18-25.58h-.34l-.06-3.45c10.89-.21 18.19-10.27 18.59-25.61l3.45.09c-.21 8.44 2.34 16.2 6.81 20.75a15.68 15.68 0 0 0 11.61 4.77h.12v3.45a16.31 16.31 0 0 0 -12.17 5c-4.36 4.57-6.69 12-6.4 20.4v.24zm-10.26-27.72c5.57 2.38 9.6 7.47 11.8 14.91a25.77 25.77 0 0 1 5.81-10.34 19.34 19.34 0 0 1 6.25-4.39 19.16 19.16 0 0 1 -5.8-4.07 26.54 26.54 0 0 1 -6.25-11.05c-2.25 7.1-6.35 12.32-11.81 14.93z" fill="#557793"/><path d="m405.65 717.86c-.48-13.69-5.23-27.7-20.28-27.46 12.25-.24 19.86-11.38 20.28-27.29-.34 13.75 6.27 27.38 20.28 27.29-14.36.09-20.83 13.49-20.28 27.46z" fill="#fff"/><path d="m403.93 717.93v-.23c-.38-9.69-3.27-25.58-18.18-25.58h-.34l-.06-3.45c10.89-.21 18.19-10.27 18.59-25.61l3.45.09c-.21 8.44 2.34 16.2 6.81 20.75a15.68 15.68 0 0 0 11.61 4.77h.12v3.45a16.31 16.31 0 0 0 -12.17 5c-4.36 4.57-6.69 12-6.4 20.4v.24zm-10.26-27.72c5.57 2.38 9.6 7.47 11.8 14.91a25.77 25.77 0 0 1 5.81-10.34 19.35 19.35 0 0 1 6.24-4.39 19.17 19.17 0 0 1 -5.8-4.07 26.54 26.54 0 0 1 -6.25-11.05c-2.24 7.1-6.35 12.31-11.8 14.94z" fill="#557793"/><path d="m298.78 446.37c-.48-13.69-5.23-27.7-20.28-27.46 12.25-.24 19.86-11.38 20.28-27.29-.34 13.75 6.27 27.38 20.28 27.29-14.37.09-20.84 13.49-20.28 27.46z" fill="#fff"/><path d="m297.06 446.44v-.23c-.38-9.69-3.27-25.58-18.18-25.58h-.34l-.06-3.45c10.89-.21 18.19-10.27 18.59-25.61l3.45.09c-.21 8.44 2.34 16.2 6.81 20.75a15.68 15.68 0 0 0 11.61 4.77h.06v3.45a16.31 16.31 0 0 0 -12.17 5c-4.36 4.57-6.69 12-6.4 20.4v.24zm-10.26-27.72c5.57 2.38 9.6 7.47 11.8 14.91a25.77 25.77 0 0 1 5.81-10.34 19.35 19.35 0 0 1 6.24-4.39 19.16 19.16 0 0 1 -5.8-4.07 26.54 26.54 0 0 1 -6.25-11.05c-2.24 7.11-6.35 12.31-11.81 14.94z" fill="#557793"/><path d="m921.53 703.24c-.48-13.69-5.23-27.7-20.28-27.46 12.25-.24 19.86-11.38 20.28-27.29-.34 13.75 6.27 27.38 20.28 27.29-14.37.09-20.81 13.49-20.28 27.46z" fill="#fff"/><path d="m919.81 703.31v-.23c-.38-9.69-3.27-25.58-18.18-25.58h-.34l-.06-3.45c10.89-.21 18.19-10.27 18.59-25.61l3.45.09c-.21 8.44 2.34 16.2 6.81 20.75a15.68 15.68 0 0 0 11.61 4.77h.12v3.45a16.31 16.31 0 0 0 -12.17 5c-4.36 4.57-6.69 12-6.4 20.4v.24zm-10.26-27.72c5.57 2.38 9.6 7.47 11.8 14.91a25.77 25.77 0 0 1 5.81-10.34 19.35 19.35 0 0 1 6.24-4.39 19.16 19.16 0 0 1 -5.8-4.07 26.54 26.54 0 0 1 -6.25-11.05c-2.24 7.1-6.35 12.35-11.81 14.94z" fill="#557793"/><circle cx="990.85" cy="643.83" fill="#557793" r="4.61"/></svg>